# xmcd
#
# Track frame offsets: 
#        150
#        22325
#        40932
#        78647
#        109022
#        129787
#        154280
#        177105
#        203347
#        228100
#
# Disc length: 3316 seconds
#
# Revision: 0
# Processed by: cddbd v1.5.2PL0 Copyright (c) Steve Scherf et al.
# Submitted via: ExactAudioCopy v0.99pb3
#
DISCID=740cf20a
DTITLE=Big Pete Pearson - Choose
DYEAR=2012
DGENRE=Blues
TTITLE0=Travelin' Man
TTITLE1=Hole In My Pocket
TTITLE2=Choose
TTITLE3=Gambler's Groove
TTITLE4=Bad Luck
TTITLE5=Hard Time
TTITLE6=Mini Skirt
TTITLE7=Slippery When Wet
TTITLE8=The Love You Don't Have
TTITLE9=Big Let Down
EXTD=
EXTT0=
EXTT1=
EXTT2=
EXTT3=
EXTT4=
EXTT5=
EXTT6=
EXTT7=
EXTT8=
EXTT9=
PLAYORDER=
